<svg xmlns="http://www.w3.org/2000/svg" xmlns:xlink="http://www.w3.org/1999/xlink" viewBox="0 0 512 512"><defs><style>.cls-1{fill:none;}.cls-2{isolation:isolate;}.cls-3{fill:#2f353f;}.cls-4{fill:#f25a3d;}.cls-5{fill:#f2c33d;}.cls-6{fill:#309dbf;}.cls-7{mix-blend-mode:soft-light;}.cls-8{clip-path:url(#clip-path);}.cls-10,.cls-11,.cls-9{fill:#2f343f;}.cls-10{opacity:0.3;}.cls-11{opacity:0.32;}</style><clipPath id="clip-path"><circle class="cls-1" cx="256" cy="256" r="240"/></clipPath></defs><title>icon</title><g class="cls-2"><g id="Disc"><circle class="cls-3" cx="256" cy="256" r="240"/><circle class="cls-4" cx="256" cy="256" r="231.57"/><circle class="cls-5" cx="256" cy="256" r="209.48"/><circle class="cls-6" cx="256" cy="256" r="151.61"/></g><g id="Ink"><g class="cls-7"><g class="cls-8"><path class="cls-9" d="M12.76,6.92C12.64,1.74,24-3,29.18,2.34,16.53.69,22,7.59,23.23,11.35l2.48-1.21c-.18,3.57-8,5.68-4.88,7.61-1.51-5.35-13.89-8-16.27-1.6.71,5.79,1.54,5.38,5.8,8.49L12,21.25c-2.77,2.2,1.9,9.53-5.37,9.62C10.26,44.76,36,43.46,46.88,52.1c-10.23-5.47-18-.8-27.91-7.24C7.84,37.22-.54,24.79,0,14,4.44,11,10-2.23,12.76,6.92Z"/><path class="cls-9" d="M56.11,16.16C61.54,20.47,64,30.59,59.6,33.62c12.93-10.69-20.42-10.9-8.6-20.2C44.75,9.52,37.68,6,31.66,1.12,38.55,8.2,56.69,5.4,56.11,16.16Z"/><path class="cls-9" d="M59.41,37.21c3.39,1,5.68,3.32,5.75,5.91l-9.4-5.86C57.43,36.44,59,41.8,59.41,37.21Z"/><path class="cls-9" d="M55.74,48.61c-7-.92-3.44-3.55-5.21-7.91Z"/><path class="cls-9" d="M182.33,22.22a48.84,48.84,0,0,1,31.91,22.72L218,61.42c-7.86-.5-13.67,2.35-7.42,6.26a14.74,14.74,0,0,0,14.25-1.76c1.21,3.76,10.47,4.45,7,9.67,13.24-9.11,31.12-10.91,48.9-6.54l.16,7.75c25.62-6.47,24.38,12.45,45,17.18,40.8,7.89,3,22.07,42.18,30.77-8.69-.1-23.58-1.53-18.86,8.38,4.91,6.31,19.94,1.56,26,9.05-8.74,8.67-41.43-11.06-33.35,11.14,7.71,6.68,4.6,16.06,7,23.6C375.61,188.15,375.44,217,412,221.76c-14.94-4-12.15,7.71-17.64,12.15,3.94,12.9,21.06,14.08,29.93,21.94-5.49,4.44,2.74,9.14-8.12,11.85-15.72-12.36-27.82-27.34-48.51-37.25-9.7,3.9-23.77,2.06-22.7,12,2.21,22.46-6.9,52.24,5.22,67.21-25.95-31.75-61.31-58-89.76-88.52-25,7.06,15.56,18.53.86,24.87-12.25-8.8-23-.92-36.42.43l-29-28.52c-7-.91-8.62,2.5-13.93,3.36-20.88-6.33-3.8-30.42-30.48-33.88-7-12.27,5.07-22.56-5.84-33.78-15.39.59,4.72,9.9-.73,16.93-7.59-1.5-4.77-12.49-15.95-11.36-6.21,10,8.72,25.38-10.52,29.6-.47-9.37-16-2.61-19.84-10.33-10.62,1.72-5.13,8.63-.85,11.76-10.92.13-7.27-11.27-14.86-12.76-6.65,3.26,5.33,13.07-8.21,9.25-.38-4.18-5.29-10.49-10.06-11.62-7.23,2.66,1.58,7.93-2.84,11-12-23.76-46.38-42.66-39.18-70.62,2.23-11.57,13.17-23,25.38-28.17,12.35.06,36.24-8.19,44.92,3.25,12.07,1.06,22.34,9.1,30.33,14.78,1.27-5,2.76-13.57,12.53-14.88,12.63,13-7.19,28,5.2,41.93,5.68-8,18.34-17.73,12.54-26.22,8.18-9.25,31.76-7.74,26.42-20.82,2.54,1.37,6.19,1.33,9,1.7,3.55-5.23,1.82-7,4.76-12.81C172.3,72.51,149,56.07,153.56,38.09,153.33,27.75,168.87,21,182.33,22.22Z"/><path class="cls-10" d="M185.2,25.18c1.59,7.94,8,5.67,15.66,9.78l-3.66,0c-1.48,8.58,18.53,1.37,10.64,12.22.9,2.18-3.17-4.54-7-.92-1,4,7,.92,4.6,4.73-2.56-1.37-9.33-3.28-13.55-3.81-4.09,4.61-10.22,5.88-17.12,10.14l8.93-.9c-6.44-.32-6.91,4.25-11.3,7.3C165,58.66,166.5,52.67,158.8,46c7.7,6.67.45-4.59,8.82-6.08-7.22,2.67-11.57-3.05-7.41-5.09l1.73,1.77,4.91-5L168,32.75c7.05-10.44,1,7.34,10.09.28l-5.74-5.91Z"/><path class="cls-10" d="M176.56,39c3.32-1.63-.07-2.58,4.67-4-.76,3,2,.76,3.64-.06-.64,8.19-9.53.32-11.88,6.72-4-1.56-5.11-2.73-5.75-5.91C174,35.06,171.2,37.29,176.56,39Z"/><path class="cls-10" d="M171.43,47.64c.27-1-4.07-6.73-6.81-4.5L175,45Z"/><path class="cls-10" d="M41.09,116.86c1.34,8.93-3.4,10.39-2,21.93,5,.13,6-6.46,10.35-.73l-4.23-.54c-8.12,11.83,21.13,5.31,14.41,17.35L61.55,153c5.75,5.92.69,5.78,9.83,12.63-6-4.9-9.59-2.26-14.26,1.76.4-7.17-17.29-8.94-9.36-17.21l5.94,2.33c-3-8.13-21.33-13.08-20.29-17.08l3.38.95c-1.28-6.36,4.06-18.55-5.72-17.25C34.69,119.12,40.32,119.85,41.09,116.86Z"/><polygon class="cls-10" points="177.68 62.89 179.28 59.48 183.57 62.63 177.68 62.89"/><path class="cls-10" d="M54.51,126.85l.51-2c11.35,6.64-10,2.31-8.19,9.25C48.12,129.12,45.81,126.75,54.51,126.85Z"/><polygon class="cls-10" points="52.71 133.84 51.11 137.25 50.46 134.06 52.71 133.84"/><polygon class="cls-10" points="42.7 150.08 37.61 147.36 43.49 147.08 42.7 150.08"/><polygon class="cls-10" points="64.82 148.82 61.11 146.28 63.1 147.06 64.82 148.82"/><polygon class="cls-10" points="71.28 149.15 65.28 144.24 68.4 146.19 71.28 149.15"/><path class="cls-10" d="M56,157.49l4.16-2Z"/><polygon class="cls-10" points="73 150.92 75.54 152.28 67.69 151.77 73.31 152.5 73 150.92"/><path class="cls-10" d="M80.6,152.43l6.57,5.48Z"/><polygon class="cls-10" points="55.79 169.84 53.23 168.46 54.06 168.06 55.79 169.84"/><polygon class="cls-10" points="77 166.39 74.07 160.86 74.89 160.46 77 166.39"/><path class="cls-10" d="M58.08,172.19c2.87,2.95-1.66.82-3.08.64C55.85,172.42,57.51,171.6,58.08,172.19Z"/><path class="cls-10" d="M73,176.2l5.86-.27-4.59-4.72c11,2.45,2.37,4.94-1.48,8.58-3.18-4.55-7.73-6.68-4.19-11.9C69.25,171.07,69.32,173.65,73,176.2Z"/><path class="cls-10" d="M82.56,164.54c1.47,2.77-1.67.81-3.08.64C80.32,164.76,80.89,165.35,82.56,164.54Z"/><path class="cls-10" d="M91.7,171.4c2,3.36-.52,2-2.25.22C90.27,171.22,90.27,171.22,91.7,171.4Z"/><polygon class="cls-9" points="136.67 250.5 132.22 250.95 135.53 249.33 136.67 250.5"/><polygon class="cls-10" points="215.69 214.33 216.51 213.93 218.22 215.69 217.4 216.1 215.69 214.33"/><path class="cls-10" d="M350.4,224.09c-.27,1,.3,1.58-.52,2-2.55-1.36-6.52-2.91-6-4.9C346.68,221.54,347.33,224.72,350.4,224.09Z"/><path class="cls-10" d="M333.11,240.41c-2-.77-6.38,2.26-4.91,5C322.53,242.14,327.81,241.28,333.11,240.41Z"/><path class="cls-10" d="M334.58,254.52l1.39.2Z"/><path class="cls-9" d="M381.67,328.22c8.6,20.21,34,28.66,48.65,42.43,16.79-.4,34.7,11.73,37.52,23.44-4.55-2.14-7.59-12.85-15.91-8.76,14.81,10.16-6.84,6.83,10.21,16.79l7.47-3.68c-4.1,16-13.57,30.23,8.89,44.49,10.34,10.64,24.95,24.4,32,36.65,4.92,6.32-3,5.81-9.07,7.07C470.1,467.12,462,431,427.23,419.25c-22.91-9.68,3.11-23.33-10-34.31-2.5,1.22.05,2.59,1.2,3.78-3.25-7.15-13.86,5.92-13-3.24,3.06,10.71-3.66,22.73,6.34,31.76-15.4-36.05-34.45-72.05-56.76-103.83C366.25,314.87,368,328,381.67,328.22Z"/><polygon class="cls-11" points="393.72 351.98 394.56 351.56 397.42 354.5 396.58 354.92 393.72 351.98"/><path class="cls-9" d="M283.5,419.16c17.05,9.94,8.15,24.79,12.1,37.68-8.12.5-12.2-6.22-19.48-6.15,4.8,1.14,5.88-.26,10.87-2.71l-1.66.82c-.52,2,2.87,2.95,5.11,2.73,4.33-5.63,6.09-15.2,2.63-18.75l-8.42-1.09,7.54-1.09c-5.18-5.32-10.64-12.22-19.67-13.91-1.29,5-8.12,11.85-16.87,9.16C259.11,418.06,272.66,410.52,283.5,419.16Z"/><path class="cls-11" d="M412.75,362.69c-8.88,3.49-2.94-5.53-11.87-4.63C406.94,354.2,411.09,363.51,412.75,362.69Z"/><path class="cls-9" d="M266.73,444.84c-1.51-5.36-11.68-8.24-10.71-14.81C255.94,438.8,267.64,435.66,266.73,444.84Z"/><path class="cls-11" d="M414.38,373.23l-4.2-.55c4.85,3.72-7.1,7.84,3.88,10.29-.31-1.58,1.92-1.81,3-3.21,1.59,7.95-13.36,3.95-14.56.17,5.87-.27,1.8-7,1.73-9.58-4.72,1.46-12.6.95-9.39-5.85C398.24,365.44,406,372.13,414.38,373.23Z"/><polygon class="cls-9" points="273.57 449.34 267.88 446.02 271.53 445.97 273.57 449.34"/><path class="cls-11" d="M414.46,375.81l4.22.56Z"/><polygon class="cls-11" points="438.52 386.68 430.67 386.16 433.74 385.54 438.52 386.68"/><path class="cls-11" d="M415.18,395.51c-4.4,3,4.12,6.71-3.76,6.21C408.23,397.18,418.32,397.46,415.18,395.51Z"/><path class="cls-11" d="M433,399.87c-7.8,2.08-3.39-1-9.39-5.85Z"/><polygon class="cls-11" points="450.79 384.15 451 380.55 451.31 382.14 450.79 384.15"/><path class="cls-11" d="M443.11,391.4l-1.65.82,9.07,4.27c-10.76,7.89-8.25-4.68-13.61-6.42C438.08,391.27,441.66,388.63,443.11,391.4Z"/><polygon class="cls-11" points="427.76 405.91 425.15 401.95 429.12 403.5 427.76 405.91"/><polygon class="cls-11" points="459.39 404.35 457.92 401.58 461.89 403.12 459.39 404.35"/><path class="cls-9" d="M432.61,432.32c9.17,9.44,19.76,19.08,12.19,31.51-4.39,3-4,9.81-11.75,11.89-13-3.23-26.2-5.47-34.29-16.32-4.4-8.3-8.21-16-.86-24.87C407.18,423.87,421.86,428.87,432.61,432.32Z"/><path class="cls-9" d="M327.42,499.65c4.27,3.15.75,8.37-2.27,11.58-5.55,1.85-10.9.13-16-2.6C300.53,499.78,320,492,327.42,499.65Z"/><path class="cls-11" d="M419.07,453.78l-9.77,1.33C415.7,452.83,411.61,446.11,419.07,453.78Z"/><polygon class="cls-11" points="462.02 433.57 460.25 429.21 463.07 429.58 462.02 433.57"/><path class="cls-11" d="M425.47,451.52c.77-3,18.51,1.37,11-6.3,6.77,1.91,1.65,10.52,3.9,10.31l-7.1-3.5c-2.93,5.81,6.59,5.49.84,10.94l-8.45-1.11c6.28-7.42,6.07-3.85-.82-10.94Z"/><path class="cls-11" d="M423,464.1l12.4,2.64c-9.72,3.88-13-5.82-19.87,1,3.83-3.64-7-9.68,2.25-11.58C422.33,460.92,423.94,457.52,423,464.1Z"/><polygon class="cls-11" points="474.29 442.39 470.01 439.25 473.98 440.8 474.29 442.39"/><polygon class="cls-11" points="469.62 446.43 470.46 446.02 473.33 448.97 472.49 449.38 469.62 446.43"/><path class="cls-11" d="M495.78,474.58c-1.72-1.76,3.27-4.21,5.55-1.86-3.32,1.63-9.59,9.07-12.57.94Z"/><path class="cls-11" d="M507.39,480.22c-.92,9.16-5.1-2.73-10.28,3.31C496.72,479.35,503.12,477.08,507.39,480.22Z"/><path class="cls-9" d="M157.4,221.81c7.12,3.24,24.06.94,26.79,13.5,22.29,8.82,23.2,31.07,33.95,47.78-8.52,3.91,1.31,10,1,16.75,1.95,4.27,8.72,6.4,9.18,11.72-4.66,4.53-8.68-8.23-12.69.35C208.23,327,229,335.11,229,348.51c-10.06-2.91-11.79-20-24-16.19-3.82,9.13-8.62,21-6.73,28.93,3.74-3.62,9.69-7.93,14.62-5.83,2.71,2.81-.3,6.8-3.07,7.68-6.5,4.48-12.92,3.46-18.46,5.2-7.13,8.33-7.31,19.35-5.83,29.86,4.05-.67,5.63,4.33,5.39,7.45,2.18,12.7-14.45,17.94-10.82,31.42,1.14,9.39,9.16,13.57,9.18,23.3-2.25,2.54-5.23,4.71-8.52,3.91-10.38-5.87-3.17-19.71-17.46-22.53-4.05.67-3.76,5.45-4.55,8.75,7.43,6.19,5.06,16.09,9.34,23.87-3.26-2.64-3.7,1.78-5.18,2.86-10.44-13.78-6.54-38.16-23.51-45.61-2.42,2-4,6.73-7.79,4.28-1.43-2.6-3.38-6.87-7.57-8.58-19,3.54-20.68,27.23-36.09,36.33,9.78-13.42,10.33-34.91,13.66-47.54C98.11,428.13,82.94,434.13,77,438.46c6.34-16.63,12.7-23.52,22.66-36.4-5.44-15.33-16.43-28.94-27.82-40-8.43-1.62-18.22,11.81-25.59,2,3.46-8.38,16-1.38,22.93-8.44,1.59-6.57,11-9.54,10.4-17.28-1.84,0-6.44.82-5.1-2.66,1.92-5.48,13.18-8.43,6.48-14.24-2.36-1.68-6-3.57-8.22-2.87,1.13-2.2,3.76-5.47,5.28-8.38-10.14-9-11.17,9-20.15,7.57,18.55-22.3,20.91-53.51,39.28-74.52C115,232.13,134.34,216.28,157.4,221.81Z"/></g></g></g></g></svg>